<svg xmlns="http://www.w3.org/2000/svg" width="136.929" height="40.006" version="1.1" id="svg971"><defs id="defs928"><filter id="Rectangle_1" width="1938" height="122" x="0" y="0" filterUnits="userSpaceOnUse"><feOffset dy="3" id="feOffset915"/><feGaussianBlur result="blur" stdDeviation="3" id="feGaussianBlur917"/><feFlood flood-opacity=".051" id="feFlood919"/><feComposite in2="blur" operator="in" id="feComposite921" result="result1"/><feComposite in="SourceGraphic" in2="result1" id="feComposite923"/></filter><style id="style926">.cls-2{fill:#ff3c65}.cls-4{fill:none}</style></defs><g id="Menu" transform="translate(-612.439 371.465)"><g id="Logo_preto" transform="translate(612.439 -371.465)"><g id="Group_2"><path id="Fill_1" d="M0 39.458h40V0H0z" class="cls-2" transform="translate(0 .542)" fill="#ff3c65"/><path id="Fill_4" d="M0 7.433h7.447V0H0z" class="cls-2" transform="translate(81.948)" fill="#ff3c65"/></g><path id="Fill_2" d="M16.248 8.108A8.124 8.124 0 1 1 8.124 0a8.116 8.116 0 0 1 8.124 8.108" transform="translate(12.186 11.892)" fill="#fdd303"/><path id="Clip_5" d="M0 40h136.929V0H0z" class="cls-4" fill="none"/><g id="Group_1" transform="translate(46.931)"><path id="Exclusion_2" stroke="rgba(0,0,0,0)" stroke-miterlimit="10" d="M16.1 40H0V0h14.034c4.194 0 6.966.838 9.257 2.8a10.573 10.573 0 0 1 3.832 8.056 10.236 10.236 0 0 1-2.653 6.685 10.785 10.785 0 0 1 4.467 4.108 11.7 11.7 0 0 1 1.725 6.121 11.945 11.945 0 0 1-3.774 8.63 11.577 11.577 0 0 1-4.269 2.635A19.344 19.344 0 0 1 16.1 40zM7.961 22.645v11.033h7.96c2.505 0 4.192-.572 5.307-1.8a5.421 5.421 0 0 0 0-7.432c-1.116-1.228-2.8-1.8-5.307-1.8zm.121-15.31V16h6.431a4.334 4.334 0 1 0 0-8.666H8.081z"/><path id="Fill_7" d="m15.607 12-.036-6H7.447V0H0l.036 34h13.54v-6H7.483V12z" transform="translate(47.311 6)"/><path id="Fill_8" d="M23.695 0H.677v6H13.54L0 22v6h23.695v-6H8.8L23.695 4.667z" transform="translate(66.303 12)"/><path id="Fill_9" d="M0 7.333v20h7.447V0H0z" transform="translate(35.161 12.667)"/></g><path id="Clip_5-2" d="M0 40h136.929V0H0z" class="cls-4" fill="none"/></g></g></svg>