<svg width="139" height="41" xmlns="http://www.w3.org/2000/svg" xmlns:xlink="http://www.w3.org/1999/xlink"><defs><path id="a" d="M0 41h138.786V.458H0z"/></defs><g fill="none" fill-rule="evenodd"><path fill="#FF3C65" d="M0 41h40V1H0z"/><path d="M28.434 20.729c0 4.478-3.637 8.108-8.124 8.108s-8.124-3.63-8.124-8.108c0-4.479 3.637-8.109 8.124-8.109s8.124 3.63 8.124 8.109" fill="#FDD303"/><mask id="b" fill="#fff"><use xlink:href="#a"/></mask><path fill="#FF3C65" mask="url(#b)" d="M83.948 7.891h7.448V.458h-7.448z"/><path d="M70.015 32.767c-1.003 1.119-2.535 1.825-5.307 1.825h-7.96V23.41h7.96c2.772 0 4.304.706 5.307 1.824.943 1 1.474 2.296 1.474 3.767s-.53 2.766-1.474 3.766zM56.868 7.892h6.411l.02-.001a4.396 4.396 0 0 1 4.401 4.391 4.397 4.397 0 0 1-4.4 4.393l-.014-.001v.002h-6.418V7.892zm16.39 10.346c1.356-1.39 2.653-4.112 2.653-6.776 0-3.301-1.532-6.197-3.832-8.166-2.005-1.737-4.6-2.838-9.258-2.838H48.788V41h16.097c5.307 0 8.49-1.39 10.79-3.649 2.3-2.2 3.774-5.328 3.774-8.745 0-4.518-2.535-8.572-6.191-10.368zm38.448.464-.036-6.081h-8.124V6.539h-7.448L96.135 41h13.539v-6.08h-6.093V18.702zm27.08-6.082h-23.018v6.082h12.863l-13.54 16.216V41h23.695v-6.082h-14.894l14.894-17.568zm-54.838 8.109V41h7.447V13.296h-7.447z" fill="#FFF" mask="url(#b)"/></g></svg>