<svg width="24" height="19" xmlns="http://www.w3.org/2000/svg"><path d="M24 2.25a10 10 0 0 1-2.828.754A4.83 4.83 0 0 0 23.337.35c-.951.55-2.005.95-3.127 1.165A4.979 4.979 0 0 0 16.616 0c-2.719 0-4.923 2.148-4.923 4.797 0 .375.043.741.127 1.093C7.728 5.69 4.1 3.78 1.671.878a4.678 4.678 0 0 0-.666 2.412c0 1.664.869 3.132 2.19 3.992a5.01 5.01 0 0 1-2.23-.6v.06c0 2.324 1.696 4.262 3.95 4.704a5.074 5.074 0 0 1-2.225.081c.627 1.906 2.445 3.293 4.6 3.332a10.045 10.045 0 0 1-6.115 2.053c-.397 0-.79-.023-1.175-.067A14.199 14.199 0 0 0 7.548 19c9.057 0 14.01-7.309 14.01-13.647 0-.208-.005-.416-.014-.622A9.834 9.834 0 0 0 24 2.25" fill="#FFF" fill-rule="evenodd"/></svg>